<svg width="66" height="66" viewBox="0 0 66 66" fill="none" xmlns="http://www.w3.org/2000/svg">
<path d="M33 0C41.7521 0 50.1458 3.47678 56.3345 9.66548C62.5232 15.8542 66 24.2479 66 33C66 41.7521 62.5232 50.1458 56.3345 56.3345C50.1458 62.5232 41.7521 66 33 66C24.2479 66 15.8542 62.5232 9.66548 56.3345C3.47678 50.1458 0 41.7521 0 33C0 24.2479 3.47678 15.8542 9.66548 9.66548C15.8542 3.47678 24.2479 0 33 0ZM18.5625 30.9375C18.0155 30.9375 17.4909 31.1548 17.1041 31.5416C16.7173 31.9284 16.5 32.453 16.5 33C16.5 33.547 16.7173 34.0716 17.1041 34.4584C17.4909 34.8452 18.0155 35.0625 18.5625 35.0625H42.4586L33.6022 43.9147C33.4105 44.1065 33.2584 44.3342 33.1546 44.5847C33.0508 44.8353 32.9974 45.1038 32.9974 45.375C32.9974 45.6462 33.0508 45.9147 33.1546 46.1653C33.2584 46.4158 33.4105 46.6435 33.6022 46.8353C33.794 47.027 34.0217 47.1791 34.2722 47.2829C34.5228 47.3867 34.7913 47.4401 35.0625 47.4401C35.3337 47.4401 35.6022 47.3867 35.8528 47.2829C36.1033 47.1791 36.331 47.027 36.5228 46.8353L48.8978 34.4603C49.0898 34.2687 49.2422 34.0411 49.3462 33.7905C49.4502 33.5399 49.5037 33.2713 49.5037 33C49.5037 32.7287 49.4502 32.4601 49.3462 32.2095C49.2422 31.9589 49.0898 31.7313 48.8978 31.5397L36.5228 19.1647C36.331 18.973 36.1033 18.8209 35.8528 18.7171C35.6022 18.6133 35.3337 18.5599 35.0625 18.5599C34.7913 18.5599 34.5228 18.6133 34.2722 18.7171C34.0217 18.8209 33.794 18.973 33.6022 19.1647C33.4105 19.3565 33.2584 19.5842 33.1546 19.8347C33.0508 20.0853 32.9974 20.3538 32.9974 20.625C32.9974 20.8962 33.0508 21.1647 33.1546 21.4153C33.2584 21.6658 33.4105 21.8935 33.6022 22.0853L42.4586 30.9375H18.5625Z" fill="#ED0006"/>
</svg>
