<svg width="21" height="20" viewBox="0 0 21 20" fill="none" xmlns="http://www.w3.org/2000/svg">
<path d="M10.1469 6.76482C8.28318 6.76482 6.76228 8.28572 6.76228 10.1494C6.76228 12.0131 8.28318 13.534 10.1469 13.534C12.0105 13.534 13.5314 12.0131 13.5314 10.1494C13.5314 8.28572 12.0105 6.76482 10.1469 6.76482ZM20.298 10.1494C20.298 8.74782 20.3107 7.35896 20.232 5.95993C20.1533 4.33493 19.7826 2.89275 18.5943 1.70447C17.4035 0.513646 15.9638 0.145482 14.3388 0.0667708C12.9373 -0.0119401 11.5484 0.000755229 10.1494 0.000755229C8.74783 0.000755229 7.35896 -0.0119401 5.95994 0.0667708C4.33494 0.145482 2.89275 0.516185 1.70447 1.70447C0.513646 2.89529 0.145482 4.33493 0.0667708 5.95993C-0.0119401 7.3615 0.000755229 8.75036 0.000755229 10.1494C0.000755229 11.5484 -0.0119401 12.9398 0.0667708 14.3388C0.145482 15.9638 0.516185 17.406 1.70447 18.5943C2.89529 19.7851 4.33494 20.1533 5.95994 20.232C7.3615 20.3107 8.75037 20.298 10.1494 20.298C11.551 20.298 12.9398 20.3107 14.3388 20.232C15.9638 20.1533 17.406 19.7826 18.5943 18.5943C19.7851 17.4035 20.1533 15.9638 20.232 14.3388C20.3133 12.9398 20.298 11.5509 20.298 10.1494ZM10.1469 15.357C7.26501 15.357 4.93923 13.0312 4.93923 10.1494C4.93923 7.26755 7.26501 4.94177 10.1469 4.94177C13.0287 4.94177 15.3545 7.26755 15.3545 10.1494C15.3545 13.0312 13.0287 15.357 10.1469 15.357ZM15.5678 5.9447C14.8949 5.9447 14.3515 5.40134 14.3515 4.72849C14.3515 4.05564 14.8949 3.51228 15.5678 3.51228C16.2406 3.51228 16.784 4.05564 16.784 4.72849C16.7842 4.88826 16.7528 5.0465 16.6918 5.19415C16.6307 5.3418 16.5412 5.47595 16.4282 5.58893C16.3152 5.7019 16.1811 5.79148 16.0334 5.85253C15.8858 5.91358 15.7275 5.9449 15.5678 5.9447Z" fill="white"/>
</svg>
