<?xml version="1.0" encoding="UTF-8" standalone="no"?>
<svg
   width="140.05362mm"
   height="153.18713mm"
   viewBox="0 0 140.05362 153.18713"
   version="1.1"
   id="svg6"
   inkscape:version="1.1-dev (0486c1a, 2020-10-10)"
   sodipodi:docname="logo_himatif.svg"
   xmlns:inkscape="http://www.inkscape.org/namespaces/inkscape"
   xmlns:sodipodi="http://sodipodi.sourceforge.net/DTD/sodipodi-0.dtd"
   xmlns:xlink="http://www.w3.org/1999/xlink"
   xmlns="http://www.w3.org/2000/svg"
   xmlns:svg="http://www.w3.org/2000/svg">
  <defs
     id="defs2">
    <filter
       inkscape:collect="always"
       style="color-interpolation-filters:sRGB"
       id="filter1691"
       x="-0.039429117"
       width="1.0788583"
       y="-0.035806566"
       height="1.0716131">
      <feGaussianBlur
         inkscape:collect="always"
         stdDeviation="14.601287"
         id="feGaussianBlur1693" />
    </filter>
  </defs>
  <sodipodi:namedview
     id="base"
     pagecolor="#ffffff"
     bordercolor="#666666"
     borderopacity="1.0"
     inkscape:pageopacity="0.0"
     inkscape:pageshadow="2"
     inkscape:zoom="0.78982634"
     inkscape:cx="251.95412"
     inkscape:cy="194.97957"
     inkscape:document-units="mm"
     inkscape:current-layer="g1357"
     showgrid="false"
     inkscape:snap-bbox="true"
     inkscape:window-width="1920"
     inkscape:window-height="1056"
     inkscape:window-x="0"
     inkscape:window-y="24"
     inkscape:window-maximized="0"
     fit-margin-top="0"
     fit-margin-left="0"
     fit-margin-right="0"
     fit-margin-bottom="0" />
  <g
     inkscape:label="Layer 1"
     inkscape:groupmode="layer"
     id="layer1"
     transform="translate(-37.287528,-51.720616)">
    <g
       id="g1314">
      <g
         id="g1357"
         transform="matrix(0.14606447,0,0,0.14606447,102.22345,138.2801)">
        <g
           id="g1736"
           transform="translate(-188.40805,228.98824)">
          <path
             style="fill:#d1d8ff;fill-opacity:0.141129;stroke:none;stroke-width:4.06299;stroke-linecap:butt;stroke-linejoin:round;stroke-miterlimit:4;stroke-dasharray:none;stroke-opacity:1;paint-order:stroke fill markers;filter:url(#filter1691)"
             sodipodi:type="inkscape:offset"
             inkscape:radius="47.50552"
             inkscape:original="M 224.89258 -739.05078 A 18.100862 18.175524 0 0 0 206.80664 -720.87109 L 206.80664 -681.46289 L 206.80664 -661.51172 L 206.80664 -654.66797 C 206.80664 -653.80082 206.83054 -652.93834 206.86914 -652.08008 C -4.7181647 -643.4471 -173.6145 -468.48019 -173.61328 -253.90039 C -173.61528 -33.80546 4.0745511 144.61653 223.26562 144.61523 C 442.45331 144.61223 620.13796 -33.80868 620.13672 -253.90039 C 620.13672 -338.2517 594.03574 -416.48091 549.50391 -480.89258 L 564.41211 -480.89258 L 597.42773 -480.89258 C 608.70059 -480.89558 617.83008 -490.06937 617.83203 -501.38867 L 617.83203 -534.53711 L 617.83203 -550.65234 C 617.83203 -590.18773 585.49703 -622.65039 546.12695 -622.65039 L 529.97266 -622.65039 L 388.77344 -622.65039 L 362.32227 -622.65039 L 362.32227 -654.66797 L 362.32227 -669.05078 L 362.32227 -681.46289 C 362.32227 -713.04936 336.44832 -739.05078 304.98828 -739.05078 L 292.70898 -739.05078 L 264.1543 -739.05078 L 224.89258 -739.05078 z "
             xlink:href="#path1083"
             id="path1264"
             inkscape:href="#path1083"
             d="m 224.85352,-786.55664 c -34.44097,0.0285 -65.56057,31.42191 -65.55274,65.69726 v 25.58399 c -214.921887,31.22655 -380.42119,217.48091 -380.41992,441.375 -0.002,245.6636687 199.413815,446.02294 444.38476,446.02148 244.96731,-0.003 444.37834,-200.3614915 444.37696,-446.02148 0,-66.45384 -14.62123,-129.70532 -40.71094,-186.5293 22.56152,-11.20217 38.40171,-34.57387 38.40625,-60.95117 a 47.51027,47.51027 0 0 0 0,-0.008 v -33.14844 -16.11523 c 0,-65.43777 -53.72702,-119.50391 -119.21094,-119.50391 H 529.97266 409.82812 v -11.30664 c 0,-57.52913 -47.20456,-105.09375 -104.83984,-105.09375 h -12.2793 -28.55468 -39.26172 a 47.51027,47.51027 0 0 0 -0.0391,0 z" />
          <path
             id="path1083"
             style="fill:#787878;fill-opacity:1;stroke:none;stroke-width:1.075;stroke-linecap:butt;stroke-linejoin:round;stroke-miterlimit:4;stroke-dasharray:none;stroke-opacity:1;paint-order:stroke fill markers"
             d="m 224.89221,-739.05151 a 18.100862,18.175524 0 0 0 -18.08623,18.17975 v 39.40845 19.95072 6.84506 c 0,0.86715 0.0255,1.72868 0.0641,2.58694 -211.5873053,8.63298 -380.48394,183.60001 -380.48272,398.17981 -0.002,220.094931 177.6880561,398.51754 396.87913,398.51624 219.18769,-0.003 396.87211,-178.424529 396.87087,-398.51624 0,-84.35131 -26.10107,-162.57963 -70.6329,-226.9913 h 14.90813 33.01556 c 11.27286,-0.003 20.40144,-9.17713 20.40339,-20.49643 v -33.14887 -16.1153 c 0,-39.53539 -32.33457,-71.99767 -71.70465,-71.99767 h -16.1551 -141.19913 -26.45008 v -32.01718 -14.38362 -12.41266 c 0,-31.58647 -25.87445,-57.5877 -57.33449,-57.5877 h -12.27934 -28.55433 z" />
          <g
             style="stroke-width:0.0849364"
             transform="matrix(11.749312,0,0,11.797775,982.3898,-1185.6632)"
             id="g1084">
            <path
               id="path1060"
               d="m -64.61002,45.198904 c -18.655629,-1.07e-4 -33.779032,15.123294 -33.778925,33.778919 -1.28e-4,18.655631 15.123273,33.779027 33.778925,33.778917 18.655365,-2.6e-4 33.778329,-15.123559 33.778223,-33.778917 7.7e-5,-13.598276 -8.035125,-25.319875 -19.616595,-30.675691 -0.839936,-0.388426 -4.240206,5.56701 -5.115735,5.247261 -0.827675,-0.302272 0.871191,-6.883471 0.01469,-7.121391 -2.883414,-0.800953 -5.922005,-1.229051 -9.060579,-1.229098 z"
               style="opacity:1;fill:#ffffff;fill-opacity:1;stroke:none;stroke-width:0.0913066;stroke-linecap:butt;stroke-linejoin:round;stroke-miterlimit:4;stroke-dasharray:none;stroke-opacity:1;paint-order:stroke fill markers"
               inkscape:connector-curvature="0"
               sodipodi:nodetypes="ccccsssc" />
            <g
               style="stroke-width:0.0849364"
               transform="translate(-154.13948,-11.449216)"
               id="g1082">
              <path
                 inkscape:connector-curvature="0"
                 transform="scale(0.26458333)"
                 id="path1062"
                 d="M 338.21484,248.55664 A 93.214287,93.214287 0 0 0 245,341.77148 a 93.214287,93.214287 0 0 0 93.21484,93.21485 93.214287,93.214287 0 0 0 93.21289,-93.21485 93.214287,93.214287 0 0 0 -93.21289,-93.21484 z m 0,33.33594 a 59.879251,59.879251 0 0 1 59.87891,59.8789 59.879251,59.879251 0 0 1 -59.87891,59.87891 59.879251,59.879251 0 0 1 -59.8789,-59.87891 59.879251,59.879251 0 0 1 59.8789,-59.8789 z"
                 style="opacity:1;fill:#000000;fill-opacity:1;stroke:none;stroke-width:0.955033;stroke-linecap:round;stroke-linejoin:round;stroke-miterlimit:4;stroke-dasharray:none;stroke-opacity:1;paint-order:stroke fill markers" />
              <path
                 inkscape:connector-curvature="0"
                 style="color:#000000;font-style:normal;font-variant:normal;font-weight:normal;font-stretch:normal;font-size:medium;line-height:normal;font-family:sans-serif;font-variant-ligatures:normal;font-variant-position:normal;font-variant-caps:normal;font-variant-numeric:normal;font-variant-alternates:normal;font-feature-settings:normal;text-indent:0;text-align:start;text-decoration:none;text-decoration-line:none;text-decoration-style:solid;text-decoration-color:#000000;letter-spacing:normal;word-spacing:normal;text-transform:none;writing-mode:lr-tb;direction:ltr;text-orientation:mixed;dominant-baseline:auto;baseline-shift:baseline;text-anchor:start;white-space:normal;shape-padding:0;clip-rule:nonzero;display:inline;overflow:visible;visibility:visible;opacity:1;isolation:auto;mix-blend-mode:normal;color-interpolation:sRGB;color-interpolation-filters:linearRGB;solid-color:#000000;solid-opacity:1;vector-effect:none;fill:#ffffff;fill-opacity:1;fill-rule:nonzero;stroke:none;stroke-width:0.509613;stroke-linecap:round;stroke-linejoin:round;stroke-miterlimit:4;stroke-dasharray:none;stroke-dashoffset:0;stroke-opacity:1;paint-order:stroke fill markers;color-rendering:auto;image-rendering:auto;shape-rendering:auto;text-rendering:auto;enable-background:accumulate"
                 d="m -648.13867,114.77734 a 2.654512,2.6654613 0 0 0 -2.65235,2.66602 v 5.7793 2.92578 1.0039 c 0,2.61926 1.21484,4.97536 3.10352,6.5293 -2.08383,1.61305 -3.44336,4.13372 -3.44336,6.95117 v 1.82227 51.0957 5.7793 c 3e-4,1.65999 1.34097,3.00556 2.99414,3.00586 h 5.75586 1.63867 4.34766 c 4.79589,0 8.75,-3.96948 8.75,-8.78516 v -1.00586 -22.50976 h 3.53906 8.56055 6.83789 c 5.77428,0 5.90788,-4.77903 6.04687,-10.48633 5.9e-4,-0.0244 0.002,-0.0478 0.002,-0.0723 v -2.36328 -4.47656 h 4.31054 4.8418 c 1.65318,-3e-4 2.9919,-1.34587 2.99219,-3.00586 v -4.86133 -2.36328 c 0,-5.79791 -4.74196,-10.55859 -10.51563,-10.55859 h -2.36914 -20.70703 -3.87891 v -4.69532 -2.10937 -1.82031 c 0,-4.63219 -3.79455,-8.44532 -8.4082,-8.44532 h -1.80078 -4.1875 z m 2.65625,5.32813 h 3.10156 4.1875 1.80078 c 1.76454,0 3.10156,1.34487 3.10156,3.11719 v 1.82031 2.10937 3.11524 h -3.10156 -1.64062 -4.34766 c -1.76454,0 -3.10156,-1.34342 -3.10156,-3.11524 v -1.0039 -2.92578 z m 3.10156,17.75391 h 1.80078 4.18555 2.76367 v 2.77343 51.91211 1.00586 c 0,1.58883 -1.18138,2.77344 -2.76367,2.77344 h -4.34766 -1.63867 -2.76172 v -2.77344 -51.0957 -1.82227 c 0,-1.58938 1.17942,-2.77343 2.76172,-2.77343 z m 16.42969,0 h 1.8457 20.70703 2.36914 c 2.56127,0 4.5293,1.97546 4.5293,4.54687 v 2.36328 1.85547 h -1.84766 -24.91406 -2.68945 v -1.85547 -3.67187 -1.38477 z m 0,17.39843 h 2.68945 12.76758 1.84766 v 1.85547 2.29492 c -0.067,2.65707 -1.96821,4.61524 -4.52735,4.61524 h -2.37109 -8.56055 -1.8457 v -1.85547 -1.38281 -3.67188 z"
                 transform="matrix(0.58036622,0,0,0.57798217,465.82561,-17.034429)"
                 id="path1064" />
              <path
                 inkscape:connector-curvature="0"
                 id="path1068"
                 d="m 89.668944,50.844957 v 3.340883 1.690852 0.580842 c 0,1.850843 1.49004,3.340884 3.34088,3.340884 h 2.523879 0.950846 3.340365 V 56.457534 55.238488 54.18584 c 0,-1.850842 -1.489525,-3.340883 -3.340365,-3.340883 h -1.045416 -2.429309 z"
                 style="opacity:1;fill:#de0303;fill-opacity:1;stroke:none;stroke-width:0.0169873;stroke-linecap:round;stroke-linejoin:round;stroke-miterlimit:4;stroke-dasharray:none;stroke-opacity:1;paint-order:stroke fill markers" />
              <path
                 sodipodi:nodetypes="cccsscccccssccc"
                 inkscape:connector-curvature="0"
                 style="opacity:1;fill:#0011f7;fill-opacity:1;stroke:none;stroke-width:0.252686;stroke-linecap:round;stroke-linejoin:round;stroke-miterlimit:4;stroke-dasharray:none;stroke-opacity:1;paint-order:stroke fill markers"
                 d="m 99.824914,60.908573 v 3.340884 30.00363 0.580843 c 0,1.850842 -1.490041,3.340883 -3.340881,3.340883 H 93.960154 93.009308 89.668944 V 94.83393 65.302104 64.249457 c 0,-1.850843 1.489524,-3.340884 3.340364,-3.340884 h 1.045416 2.429309 z"
                 id="path1070" />
              <path
                 id="path1072"
                 d="m 121.37452,69.449465 h -2.80959 -14.45991 l -3.29801,-4e-6 v -2.809584 -2.122513 -0.799635 -2.809153 h 2.80959 12.01654 1.37559 c 2.41866,0 4.36584,1.946497 4.36584,4.36516 v 1.366141 0 z"
                 style="opacity:1;fill:#0011f7;fill-opacity:1;stroke:none;stroke-width:0.252686;stroke-linecap:round;stroke-linejoin:round;stroke-miterlimit:4;stroke-dasharray:none;stroke-opacity:1;paint-order:stroke fill markers"
                 inkscape:connector-curvature="0"
                 sodipodi:nodetypes="ccccscccccssccc" />
              <path
                 sodipodi:nodetypes="ccccscccccssccc"
                 inkscape:connector-curvature="0"
                 style="opacity:1;fill:#0011f7;fill-opacity:1;stroke:none;stroke-width:0.252686;stroke-linecap:round;stroke-linejoin:round;stroke-miterlimit:4;stroke-dasharray:none;stroke-opacity:1;paint-order:stroke fill markers"
                 d="m 114.32529,70.964592 h -2.80959 -7.41068 l -3.29801,4e-6 v 2.809584 2.122513 0.799635 2.809153 h 2.80959 4.96731 1.37559 c 2.41866,0 4.30671,-1.94722 4.36584,-4.36516 v -1.366141 0 z"
                 id="path1074" />
              <g
                 aria-label="HIMPUNAN MAHASISWA  INFORMATIKA"
                 transform="matrix(0.98102753,0,0,0.98102753,0.32927405,1.1307096)"
                 style="font-style:italic;font-variant:normal;font-weight:900;font-stretch:normal;font-size:4.22559px;line-height:1.25;font-family:Lato;-inkscape-font-specification:'Lato Heavy Italic';letter-spacing:0px;word-spacing:0px;fill:#1f1f1f;fill-opacity:1;stroke:none;stroke-width:0.0229074"
                 id="text1078">
                <path
                   d="m 64.02215,110.90121 -0.02865,-0.006 q -0.104206,-0.17612 -0.345845,-0.53328 -0.247419,-0.36571 -0.366352,-0.51941 l 0.0038,-0.0275 0.116207,-0.0786 0.02981,0.007 q 0.128182,0.16738 0.15236,0.18839 0.0472,0.0403 0.102539,0.0153 0.138073,-0.061 0.544795,-0.33619 l 0.41185,-0.27864 q -0.05042,-0.0929 -0.366053,-0.55947 -0.291353,-0.43065 -0.392391,-0.56158 l -0.411849,0.27864 q -0.406723,0.27516 -0.514735,0.38062 -0.04378,0.0421 -0.02392,0.10088 0.01051,0.0303 0.118182,0.21151 l -0.0055,0.0286 -0.114497,0.0775 -0.0275,-0.004 q -0.105363,-0.17783 -0.345845,-0.53328 -0.248575,-0.36742 -0.366352,-0.51941 l 0.0038,-0.0275 0.116206,-0.0786 0.02865,0.006 q 0.128182,0.16738 0.152361,0.18839 0.0472,0.0403 0.102539,0.0153 0.138072,-0.061 0.544795,-0.33619 l 0.904018,-0.61162 q 0.406723,-0.27516 0.514735,-0.38062 0.04378,-0.0421 0.02392,-0.10088 -0.01051,-0.0303 -0.118182,-0.21151 l 0.0055,-0.0287 0.116206,-0.0786 0.02694,0.007 q 0.100738,0.17099 0.345845,0.53328 0.250888,0.37083 0.366352,0.51941 l -0.005,0.0258 -0.117915,0.0798 -0.02694,-0.007 q -0.128182,-0.16738 -0.15236,-0.18838 -0.0472,-0.0403 -0.10254,-0.0153 -0.138072,0.061 -0.544795,0.33619 l -0.281972,0.19077 q 0.114009,0.18693 0.329056,0.50479 0.337599,0.499 0.429388,0.61626 l 0.281971,-0.19076 q 0.406723,-0.27517 0.514735,-0.38063 0.04378,-0.0421 0.02392,-0.10088 -0.01051,-0.0303 -0.118182,-0.21151 l 0.0044,-0.0304 0.116206,-0.0786 0.02694,0.007 q 0.101895,0.1727 0.345845,0.53328 0.252044,0.37255 0.366352,0.51941 l -0.0038,0.0275 -0.117915,0.0798 -0.02579,-0.005 q -0.130494,-0.17079 -0.153516,-0.19009 -0.0472,-0.0403 -0.10254,-0.0153 -0.138072,0.061 -0.544795,0.3362 l -0.904018,0.61161 q -0.406722,0.27516 -0.514734,0.38062 -0.04378,0.0421 -0.02392,0.10088 0.01051,0.0303 0.118182,0.21151 l -0.0055,0.0286 z"
                   style="font-style:normal;font-variant:normal;font-weight:bold;font-stretch:normal;font-family:'Palatino Linotype';-inkscape-font-specification:'Palatino Linotype Bold';letter-spacing:0.291042px;fill:#1f1f1f;fill-opacity:1;stroke-width:0.0229074"
                   id="path1088"
                   inkscape:connector-curvature="0" />
                <path
                   d="m 65.265532,112.34813 -0.02774,-9.7e-4 q -0.1231,-0.16604 -0.400203,-0.49645 -0.275778,-0.32883 -0.417848,-0.47896 l 0.0039,-0.0275 0.10592,-0.0888 0.02907,0.003 q 0.144722,0.1533 0.170933,0.17171 0.0511,0.0352 0.103572,0.005 0.131061,-0.0749 0.507314,-0.39046 l 0.836294,-0.70138 q 0.376254,-0.31555 0.472842,-0.43157 0.03922,-0.0464 0.01341,-0.1028 -0.01356,-0.029 -0.139316,-0.19823 l 0.0026,-0.0291 0.107501,-0.0902 0.02749,0.004 q 0.117797,0.15972 0.398878,0.49487 0.279754,0.33357 0.416522,0.47738 l -9.7e-4,0.0277 -0.107501,0.0902 -0.02907,-0.003 q -0.144723,-0.1533 -0.170934,-0.17171 -0.0511,-0.0352 -0.103572,-0.005 -0.131061,0.0749 -0.507314,0.39046 l -0.836294,0.70137 q -0.376253,0.31556 -0.472842,0.43157 -0.03922,0.0464 -0.01341,0.10281 0.01356,0.029 0.139316,0.19822 l -0.0026,0.0291 z m 1.892811,-2.44377 z m -2.444065,2.04976 z"
                   style="font-style:normal;font-variant:normal;font-weight:bold;font-stretch:normal;font-family:'Palatino Linotype';-inkscape-font-specification:'Palatino Linotype Bold';letter-spacing:0.291042px;fill:#1f1f1f;fill-opacity:1;stroke-width:0.0229074"
                   id="path1090"
                   inkscape:connector-curvature="0" />
                <path
                   d="m 68.454456,115.56734 -0.02917,4.7e-4 q -0.138166,-0.15095 -0.448025,-0.45085 -0.317273,-0.30708 -0.465245,-0.43307 l -4.29e-4,-0.0263 0.09758,-0.10082 0.02918,-4.7e-4 q 0.159834,0.13747 0.187812,0.15306 0.05447,0.0297 0.103501,-0.006 0.122589,-0.0881 0.464106,-0.44094 l 0.970023,-1.00223 -0.986385,0.35755 q -0.0827,0.0291 -0.594521,0.22858 l -0.84529,0.33044 -0.09933,-0.0961 q 0.100839,-0.25846 0.240093,-0.66638 l 0.218618,-0.64122 0.393608,-1.18396 -0.995852,1.02891 q -0.341517,0.35285 -0.425559,0.47825 -0.0342,0.0502 -0.0027,0.10365 0.0165,0.0275 0.159112,0.18271 l 4.77e-4,0.0292 -0.09758,0.10081 -0.02774,-0.001 q -0.161887,-0.17392 -0.308663,-0.31598 -0.170497,-0.16502 -0.351086,-0.32257 l -0.0019,-0.0277 0.09758,-0.10081 0.02918,-4.8e-4 q 0.159833,0.13747 0.187812,0.15306 0.05447,0.0298 0.103501,-0.006 0.122589,-0.0881 0.464106,-0.44095 l 0.759086,-0.78428 q 0.341517,-0.35286 0.42556,-0.47826 0.0342,-0.0502 0.0027,-0.10364 -0.0165,-0.0275 -0.159113,-0.18272 l -4.76e-4,-0.0292 0.09758,-0.10082 0.02774,10e-4 q 0.145578,0.15813 0.381309,0.38628 0.180875,0.17507 0.3244,0.29675 -0.06013,0.16003 -0.167716,0.45216 l -0.103137,0.29643 -0.482778,1.44223 0.671668,-0.24005 1.087595,-0.41465 q 0.192848,-0.0747 0.402821,-0.17292 0.158922,0.17104 0.216742,0.22701 0.290586,0.28125 0.453385,0.42158 l 0.0019,0.0277 -0.09901,0.1023 -0.02774,-10e-4 q -0.159833,-0.13747 -0.187811,-0.15306 -0.05448,-0.0298 -0.103501,0.006 -0.12259,0.0881 -0.464107,0.44095 l -0.759086,0.78429 q -0.341517,0.35285 -0.425559,0.47825 -0.0342,0.0502 -0.0027,0.10364 0.0165,0.0275 0.159112,0.18272 l 4.77e-4,0.0292 z"
                   style="font-style:normal;font-variant:normal;font-weight:bold;font-stretch:normal;font-family:'Palatino Linotype';-inkscape-font-specification:'Palatino Linotype Bold';letter-spacing:0.291042px;fill:#1f1f1f;fill-opacity:1;stroke-width:0.0229074"
                   id="path1092"
                   inkscape:connector-curvature="0" />
                <path
                   d="m 72.151607,115.55589 q -0.260387,0.33593 -0.63695,0.34688 -0.373668,0.0106 -0.662313,-0.21316 -0.09785,-0.0758 -0.179627,-0.17577 0.01945,-0.0554 0.03393,-0.16166 l 0.06205,-0.009 q 0.0508,0.0759 0.107873,0.12016 0.164707,0.12766 0.353928,0.089 0.190486,-0.0403 0.353543,-0.25068 0.35266,-0.45498 -0.05666,-0.77225 -0.04892,-0.0379 -0.210859,-0.13211 -0.04501,0.0278 -0.428009,0.52189 l -0.668663,0.86267 q -0.300836,0.38812 -0.370645,0.52197 -0.0285,0.0536 0.0087,0.10331 0.01215,0.0146 0.210774,0.18948 l 0.004,0.0318 -0.08343,0.10763 -0.02895,0.004 q -0.215831,-0.18295 -0.527306,-0.42438 -0.350614,-0.27176 -0.509859,-0.37953 l -0.0049,-0.0273 0.08469,-0.10926 0.03184,-0.004 q 0.172291,0.11788 0.201808,0.13031 0.0574,0.0236 0.102215,-0.0174 0.112208,-0.10098 0.413044,-0.4891 l 0.668663,-0.86268 q 0.300835,-0.38812 0.370644,-0.52197 0.0285,-0.0536 -0.0087,-0.10331 -0.0194,-0.0255 -0.178159,-0.1642 l -0.0024,-0.0306 0.08342,-0.10763 0.03058,-0.002 q 0.152231,0.13366 0.483276,0.39025 0.136984,0.10618 0.398436,0.301 0.261453,0.19482 0.300591,0.22516 0.446829,0.34634 0.404854,0.67666 -0.02252,0.17051 -0.151446,0.33685 z"
                   style="font-style:normal;font-variant:normal;font-weight:bold;font-stretch:normal;font-family:'Palatino Linotype';-inkscape-font-specification:'Palatino Linotype Bold';letter-spacing:0.291042px;fill:#1f1f1f;fill-opacity:1;stroke-width:0.0229074"
                   id="path1094"
                   inkscape:connector-curvature="0" />
                <path
                   d="m 75.24335,116.9926 -0.02851,0.006 q -0.204973,-0.13138 -0.301175,-0.0387 -0.05287,0.0519 -0.190087,0.25067 -0.10208,0.14778 -0.284683,0.43266 l -0.342938,0.53502 q -0.330691,0.5159 -0.675333,0.60624 -0.456301,0.11924 -0.954838,-0.20031 -0.45511,-0.29172 -0.613589,-0.60652 -0.133001,-0.26661 -0.04758,-0.54516 0.05518,-0.17785 0.46381,-0.81535 l 0.287266,-0.44816 q 0.264997,-0.41342 0.322583,-0.55296 0.0236,-0.0559 -0.01786,-0.10213 -0.0216,-0.0237 -0.192102,-0.14764 l -0.0062,-0.0285 0.0746,-0.11638 0.0285,-0.006 q 0.160077,0.11731 0.528334,0.35336 0.375205,0.2405 0.539958,0.3314 l 0.0062,0.0285 -0.0746,0.11638 -0.0285,0.006 q -0.183861,-0.10315 -0.214371,-0.1129 -0.05928,-0.0184 -0.100257,0.0264 -0.102749,0.11059 -0.367747,0.52402 l -0.229367,0.35783 q -0.420879,0.65661 -0.456461,0.84212 -0.06894,0.36754 0.394859,0.66482 0.303985,0.19485 0.569973,0.15458 0.125555,-0.02 0.203587,-0.0729 0.07803,-0.0529 0.193384,-0.19464 0.106935,-0.13242 0.200464,-0.27834 l 0.231594,-0.3613 q 0.29172,-0.45511 0.395136,-0.6241 0.09673,-0.15856 0.109427,-0.2166 0.0084,-0.0436 -0.02628,-0.0928 -0.02993,-0.0412 -0.196957,-0.163 l -0.0062,-0.0285 0.0746,-0.11638 0.0285,-0.006 q 0.144444,0.10729 0.304253,0.20973 0.119858,0.0768 0.467002,0.28464 l 0.0062,0.0285 z m -1.096272,-1.03109 z m -1.721371,2.68549 z"
                   style="font-style:normal;font-variant:normal;font-weight:bold;font-stretch:normal;font-family:'Palatino Linotype';-inkscape-font-specification:'Palatino Linotype Bold';letter-spacing:0.291042px;fill:#1f1f1f;fill-opacity:1;stroke-width:0.0229074"
                   id="path1096"
                   inkscape:connector-curvature="0" />
                <path
                   d="m 78.365257,118.60159 -0.02959,0.008 q -0.193143,-0.0845 -0.224466,-0.0912 -0.06081,-0.0125 -0.09716,0.0362 -0.09133,0.12019 -0.31424,0.55774 l -0.380251,0.74642 q -0.420525,0.82547 -0.524,1.08767 l -0.03233,0.004 q -0.189951,-0.14076 -0.289089,-0.20979 -0.210797,-0.80438 -0.653826,-2.8756 l -0.612523,1.20235 q -0.222906,0.43756 -0.26644,0.5821 -0.01797,0.058 0.02785,0.0999 0.02383,0.0214 0.205734,0.12796 l 0.009,0.0277 -0.06369,0.12502 -0.02681,0.007 q -0.205804,-0.11874 -0.387811,-0.21146 -0.211423,-0.10771 -0.430304,-0.20532 l -0.01,-0.0259 0.06369,-0.12502 0.02775,-0.009 q 0.193143,0.0845 0.224466,0.0912 0.06081,0.0125 0.09716,-0.0362 0.09133,-0.12019 0.31424,-0.55775 l 0.495451,-0.97254 q 0.222906,-0.43756 0.26644,-0.5821 0.01797,-0.058 -0.02785,-0.0999 -0.02383,-0.0214 -0.205734,-0.12796 l -0.009,-0.0277 0.06369,-0.12502 0.02681,-0.007 q 0.169034,0.10001 0.327142,0.18055 0.248192,0.12644 0.417435,0.19877 0.212286,1.21963 0.591595,2.68412 l 0.5479,-1.0755 q 0.222906,-0.43755 0.26644,-0.5821 0.01797,-0.058 -0.02785,-0.0999 -0.02383,-0.0214 -0.205734,-0.12797 l -0.009,-0.0278 0.06369,-0.12501 0.02681,-0.007 q 0.200288,0.11592 0.385973,0.21052 0.237161,0.12082 0.432142,0.20625 l 0.01,0.0259 z"
                   style="font-style:normal;font-variant:normal;font-weight:bold;font-stretch:normal;font-family:'Palatino Linotype';-inkscape-font-specification:'Palatino Linotype Bold';letter-spacing:0.291042px;fill:#1f1f1f;fill-opacity:1;stroke-width:0.0229074"
                   id="path1098"
                   inkscape:connector-curvature="0" />
                <path
                   d="m 80.480623,122.38665 -0.02481,0.0125 q -0.422019,-0.1785 -0.510399,-0.2131 -0.353522,-0.13839 -0.661602,-0.2457 l -0.0098,-0.026 0.04738,-0.12104 0.02749,-0.0136 0.170915,0.0558 q 0.107929,0.0356 0.135005,-0.0336 0.01579,-0.0404 0.0169,-0.20166 l 0.0031,-0.46632 q -0.263637,-0.10764 -0.540306,-0.21594 -0.149862,-0.0587 -0.447248,-0.17065 l -0.176296,0.20131 q -0.20061,0.22946 -0.226934,0.2967 -0.02858,0.073 0.05646,0.12181 0.04694,0.0272 0.189956,0.0921 l 0.01169,0.0267 -0.04813,0.12296 -0.02673,0.0117 q -0.35093,-0.15067 -0.45276,-0.19054 -0.07877,-0.0308 -0.394539,-0.14115 l -0.01244,-0.0248 0.04889,-0.12489 0.02866,-0.0109 q 0.202408,0.0659 0.272922,0.016 0.07244,-0.0492 0.653704,-0.66807 l 0.992594,-1.05831 q 0.112879,-0.12421 0.34131,-0.37379 l 0.272826,0.1068 0.08041,2.79449 q 0.0062,0.15973 0.04742,0.19583 0.05438,0.0479 0.1735,0.0945 l 0.009,0.0279 z m -0.813474,-1.51051 -0.01705,-1.16772 -0.787978,0.85259 q 0.155291,0.0674 0.406983,0.16596 0.244007,0.0955 0.398047,0.14917 z m 0.452452,-1.87465 z m -1.226174,2.94553 z"
                   style="font-style:normal;font-variant:normal;font-weight:bold;font-stretch:normal;font-family:'Palatino Linotype';-inkscape-font-specification:'Palatino Linotype Bold';letter-spacing:0.291042px;fill:#1f1f1f;fill-opacity:1;stroke-width:0.0229074"
                   id="path1100"
                   inkscape:connector-curvature="0" />
                <path
                   d="m 84.846376,120.79217 -0.02742,0.0138 q -0.206006,-0.0448 -0.238034,-0.0452 -0.06207,-2.3e-4 -0.08813,0.0546 -0.06586,0.13583 -0.198188,0.60873 l -0.225732,0.8067 q -0.249641,0.89215 -0.299425,1.1696 l -0.03083,0.0106 q -0.213963,-0.10057 -0.324758,-0.14872 -0.365151,-0.74708 -1.207585,-2.69041 l -0.363619,1.29947 q -0.132326,0.4729 -0.146527,0.62319 -0.0062,0.0604 0.04699,0.0924 0.02758,0.0163 0.226914,0.0849 l 0.01431,0.0254 -0.03781,0.13511 -0.02487,0.0123 q -0.225164,-0.0759 -0.421873,-0.1309 -0.2285,-0.0639 -0.462322,-0.11651 l -0.01487,-0.0235 0.03781,-0.13511 0.02543,-0.0143 q 0.206005,0.0448 0.238034,0.0452 0.06207,2.3e-4 0.08813,-0.0546 0.06586,-0.13583 0.198188,-0.60873 l 0.294119,-1.0511 q 0.132326,-0.47289 0.146527,-0.62318 0.0062,-0.0604 -0.04699,-0.0924 -0.02758,-0.0163 -0.226913,-0.0849 l -0.01431,-0.0254 0.03781,-0.13512 0.02487,-0.0123 q 0.185425,0.0647 0.356303,0.11256 0.268239,0.0751 0.448414,0.11262 0.448427,1.15389 1.108848,2.51494 l 0.325255,-1.16237 q 0.132326,-0.47289 0.146527,-0.62318 0.0062,-0.0604 -0.04698,-0.0924 -0.02758,-0.0163 -0.226914,-0.0849 l -0.01431,-0.0254 0.03781,-0.13511 0.02487,-0.0123 q 0.219203,0.0742 0.419886,0.13035 0.256317,0.0717 0.464309,0.11707 l 0.01487,0.0234 z"
                   style="font-style:normal;font-variant:normal;font-weight:bold;font-stretch:normal;font-family:'Palatino Linotype';-inkscape-font-specification:'Palatino Linotype Bold';letter-spacing:0.291042px;fill:#1f1f1f;fill-opacity:1;stroke-width:0.0229074"
                   id="path1102"
                   inkscape:connector-curvature="0" />
                <path
                   d="m 89.899384,124.28287 -0.02282,0.0182 q -0.201575,-0.0353 -0.630063,-0.0838 -0.438739,-0.0497 -0.632848,-0.0592 l -0.01636,-0.0205 0.01578,-0.13942 0.02282,-0.0182 q 0.210511,0.0114 0.242193,0.007 0.06131,-0.01 0.07829,-0.068 0.04336,-0.14459 0.09861,-0.63254 l 0.156906,-1.38592 -0.563265,0.88517 q -0.04777,0.0735 -0.331514,0.54388 l -0.468026,0.7776 -0.137363,-0.0156 q -0.07783,-0.2663 -0.216425,-0.67444 l -0.218089,-0.6414 -0.410648,-1.17816 -0.161084,1.42283 q -0.05524,0.48794 -0.0453,0.63857 0.0035,0.0606 0.06112,0.0837 0.02982,0.0117 0.23755,0.0477 l 0.01818,0.0228 -0.01578,0.13941 -0.02259,0.0161 q -0.234379,-0.039 -0.437347,-0.062 -0.23577,-0.0267 -0.474984,-0.0413 l -0.01841,-0.0208 0.01578,-0.13941 0.02282,-0.0182 q 0.210512,0.0114 0.242193,0.007 0.06131,-0.01 0.07829,-0.068 0.04336,-0.1446 0.09861,-0.63254 l 0.122786,-1.08455 q 0.05524,-0.48794 0.0453,-0.63857 -0.0035,-0.0606 -0.06112,-0.0837 -0.02982,-0.0117 -0.23755,-0.0477 l -0.01818,-0.0228 0.01578,-0.13941 0.02259,-0.0161 q 0.211827,0.0364 0.537805,0.0733 0.250123,0.0283 0.438082,0.0371 0.05001,0.16348 0.143045,0.46056 l 0.09918,0.29778 0.497605,1.43718 0.385632,-0.60004 0.608601,-0.99217 q 0.107229,-0.17682 0.213608,-0.3828 0.230278,0.0385 0.310235,0.0476 0.401835,0.0455 0.616447,0.0573 l 0.01841,0.0208 -0.01602,0.14146 -0.02259,0.0161 q -0.210511,-0.0114 -0.242192,-0.007 -0.06131,0.01 -0.07829,0.068 -0.04336,0.1446 -0.09861,0.63254 l -0.122786,1.08455 q -0.05524,0.48794 -0.0453,0.63857 0.0035,0.0606 0.06112,0.0837 0.02982,0.0117 0.23755,0.0477 l 0.01818,0.0228 z"
                   style="font-style:normal;font-variant:normal;font-weight:bold;font-stretch:normal;font-family:'Palatino Linotype';-inkscape-font-specification:'Palatino Linotype Bold';letter-spacing:0.291042px;fill:#1f1f1f;fill-opacity:1;stroke-width:0.0229074"
                   id="path1104"
                   inkscape:connector-curvature="0" />
                <path
                   d="m 93.528168,124.23547 -0.01822,0.0209 q -0.458191,-0.005 -0.553089,-0.003 -0.379589,0.006 -0.705333,0.0243 l -0.01891,-0.0203 -0.0022,-0.12997 0.02025,-0.023 0.179306,-0.0133 q 0.11336,-0.008 0.11211,-0.0824 -7.29e-4,-0.0433 -0.06103,-0.19295 l -0.174427,-0.43248 q -0.284762,6.7e-4 -0.581832,0.006 -0.160913,0.003 -0.478543,0.0122 l -0.08654,0.25321 q -0.09832,0.28849 -0.09711,0.3607 0.0013,0.0784 0.09852,0.0912 0.05378,0.007 0.210703,0.013 l 0.02098,0.0203 0.0022,0.13203 -0.02028,0.021 q -0.381861,-0.006 -0.491199,-0.004 -0.08458,0.001 -0.418578,0.0194 l -0.02094,-0.0182 -0.0023,-0.13409 0.02235,-0.021 q 0.212279,-0.016 0.258513,-0.089 0.0483,-0.073 0.350671,-0.86641 l 0.515768,-1.35619 q 0.05719,-0.15779 0.173592,-0.47548 l 0.292944,-0.005 1.136677,2.55414 q 0.06642,0.1454 0.118304,0.1631 0.0685,0.0236 0.196401,0.0215 l 0.01895,0.0224 z m -1.326612,-1.08788 -0.459672,-1.07357 -0.40472,1.08812 q 0.169269,0.003 0.439521,-10e-4 0.261999,-0.004 0.424871,-0.0133 z m -0.294149,-1.90591 z m -0.0144,3.19052 z"
                   style="font-style:normal;font-variant:normal;font-weight:bold;font-stretch:normal;font-family:'Palatino Linotype';-inkscape-font-specification:'Palatino Linotype Bold';letter-spacing:0.291042px;fill:#1f1f1f;fill-opacity:1;stroke-width:0.0229074"
                   id="path1106"
                   inkscape:connector-curvature="0" />
                <path
                   d="m 97.275371,123.74142 -0.01753,0.0233 q -0.203975,0.0165 -0.630911,0.0771 -0.43715,0.0621 -0.627427,0.10167 l -0.02304,-0.0155 -0.01974,-0.1389 0.01957,-0.0236 q 0.20662,-0.0419 0.2361,-0.0544 0.05692,-0.0248 0.05871,-0.0855 0.0057,-0.15085 -0.06343,-0.63702 l -0.06996,-0.49231 q -0.105632,0.005 -0.663305,0.0838 -0.514775,0.0731 -0.676744,0.10659 l 0.06996,0.4923 q 0.06909,0.48618 0.116542,0.62948 0.01863,0.0578 0.08019,0.0657 0.0318,0.004 0.241906,-0.0135 l 0.02333,0.0175 0.01945,0.13687 -0.01548,0.023 q -0.206017,0.0168 -0.630911,0.0772 -0.439192,0.0624 -0.627427,0.10166 l -0.02304,-0.0155 -0.01974,-0.13891 0.01752,-0.0233 q 0.20662,-0.0419 0.2361,-0.0544 0.05692,-0.0248 0.05871,-0.0854 0.0057,-0.15085 -0.06343,-0.63703 L 94.1278,122.1818 q -0.06909,-0.48617 -0.116542,-0.62948 -0.01863,-0.0578 -0.0802,-0.0657 -0.0318,-0.004 -0.241905,0.0135 l -0.02333,-0.0175 -0.01974,-0.13891 0.01781,-0.0213 q 0.197846,-0.0156 0.630911,-0.0771 0.443278,-0.063 0.627427,-0.10166 l 0.021,0.0158 0.02003,0.14095 -0.01781,0.0213 q -0.20662,0.0419 -0.2361,0.0544 -0.05692,0.0248 -0.05871,0.0855 -0.0057,0.15086 0.06343,0.63703 l 0.0479,0.33706 q 0.217983,-0.0206 0.597936,-0.0746 0.596485,-0.0848 0.742112,-0.11588 l -0.0479,-0.33705 q -0.06909,-0.48618 -0.116543,-0.62948 -0.01863,-0.0578 -0.08019,-0.0657 -0.0318,-0.004 -0.241905,0.0135 l -0.02537,-0.0172 -0.01974,-0.13891 0.01781,-0.0213 q 0.199889,-0.0159 0.63091,-0.0772 0.445321,-0.0633 0.627428,-0.10166 l 0.02304,0.0155 0.02003,0.14095 -0.01577,0.021 q -0.210705,0.0424 -0.238143,0.0547 -0.05692,0.0248 -0.05871,0.0855 -0.0057,0.15085 0.06343,0.63703 l 0.153558,1.08062 q 0.06909,0.48617 0.116543,0.62948 0.01863,0.0578 0.08019,0.0657 0.0318,0.004 0.241905,-0.0135 l 0.02333,0.0175 z"
                   style="font-style:normal;font-variant:normal;font-weight:bold;font-stretch:normal;font-family:'Palatino Linotype';-inkscape-font-specification:'Palatino Linotype Bold';letter-spacing:0.291042px;fill:#1f1f1f;fill-opacity:1;stroke-width:0.0229074"
                   id="path1108"
                   inkscape:connector-curvature="0" />
                <path
                   d="m 100.77165,122.82255 -0.0125,0.0248 q -0.44537,0.10773 -0.53699,0.13253 -0.366454,0.0992 -0.677893,0.19632 l -0.02331,-0.0151 -0.03396,-0.12547 0.01399,-0.0273 0.170574,-0.0569 q 0.107921,-0.0356 0.08851,-0.10733 -0.01132,-0.0418 -0.106441,-0.17211 l -0.27507,-0.37657 q -0.275919,0.0704 -0.56271,0.14805 -0.155346,0.042 -0.460974,0.12905 l -0.02186,0.2667 q -0.02465,0.30379 -0.0058,0.37349 0.02048,0.0757 0.117864,0.0643 0.05394,-0.006 0.207457,-0.0391 l 0.02531,0.0145 0.0345,0.12746 -0.01452,0.0253 q -0.371681,0.0878 -0.477236,0.11635 -0.08166,0.0221 -0.401061,0.12139 l -0.02477,-0.0125 -0.03504,-0.12946 0.01652,-0.0258 q 0.201901,-0.0675 0.228839,-0.14959 0.02893,-0.0826 0.127709,-0.92592 l 0.167776,-1.44122 q 0.01678,-0.16699 0.05181,-0.50352 l 0.282808,-0.0765 1.727808,2.19781 q 0.10002,0.12469 0.15466,0.12914 0.0722,0.006 0.19567,-0.0273 l 0.0239,0.0171 z m -1.552714,-0.72969 -0.708692,-0.92824 -0.12579,1.15412 q 0.164929,-0.0382 0.425829,-0.10885 0.252934,-0.0685 0.408653,-0.11703 z m -0.752141,-1.77576 z m 0.767727,3.09681 z"
                   style="font-style:normal;font-variant:normal;font-weight:bold;font-stretch:normal;font-family:'Palatino Linotype';-inkscape-font-specification:'Palatino Linotype Bold';letter-spacing:0.291042px;fill:#1f1f1f;fill-opacity:1;stroke-width:0.0229074"
                   id="path1110"
                   inkscape:connector-curvature="0" />
                <path
                   d="m 102.99876,120.9529 q 0.12302,0.31743 0.0361,0.62993 -0.075,0.27468 -0.2906,0.47774 -0.19743,0.18715 -0.52256,0.31316 -0.40401,0.15658 -0.8642,0.1225 l -0.0395,-0.0334 q -0.0319,-0.24212 -0.18995,-0.64998 l 0.0118,-0.0267 0.12313,-0.0477 0.0248,0.0125 0.0172,0.0442 q 0.0418,0.10774 0.13343,0.27579 0.11698,0.0963 0.3302,0.11544 0.2224,0.02 0.4244,-0.0583 0.38092,-0.14763 0.42424,-0.46979 0.0221,-0.16567 -0.0346,-0.31188 -0.0954,-0.24626 -0.3423,-0.27229 -0.1221,-0.0124 -0.36253,0.0409 -0.54424,0.1202 -0.75207,0.0635 -0.31441,-0.0862 -0.4613,-0.46515 -0.15285,-0.39438 0.0217,-0.73199 0.18544,-0.35511 0.68564,-0.54897 0.45018,-0.17447 0.78314,-0.13755 l 0.0314,0.0409 q 0.0426,0.24684 0.15745,0.57185 l -0.0137,0.0274 -0.1212,0.047 -0.0267,-0.0118 q -0.0953,-0.22863 -0.13556,-0.29267 -0.0947,-0.0673 -0.26742,-0.0734 -0.18311,-0.004 -0.35433,0.0621 -0.25779,0.0999 -0.35492,0.29466 -0.0905,0.18333 -0.0115,0.38726 0.0858,0.22124 0.28569,0.26324 0.12998,0.0271 0.54054,-0.0612 0.0426,-0.01 0.24,-0.0488 0.12096,-0.0247 0.23132,-0.0255 0.22264,-0.002 0.37892,0.10983 0.16919,0.12252 0.26388,0.36685 z"
                   style="font-style:normal;font-variant:normal;font-weight:bold;font-stretch:normal;font-family:'Palatino Linotype';-inkscape-font-specification:'Palatino Linotype Bold';letter-spacing:0.291042px;fill:#1f1f1f;fill-opacity:1;stroke-width:0.0229074"
                   id="path1112"
                   inkscape:connector-curvature="0" />
                <path
                   d="m 105.1405,120.98269 -0.008,0.0266 q -0.19144,0.078 -0.58035,0.26424 -0.38706,0.18538 -0.5678,0.28567 l -0.0257,-0.0106 -0.0597,-0.12467 0.01,-0.0275 q 0.18446,-0.10208 0.20881,-0.12289 0.0468,-0.0407 0.0303,-0.0992 -0.04,-0.14556 -0.2521,-0.58844 l -0.47148,-0.98439 q -0.21213,-0.44289 -0.30049,-0.56528 -0.0352,-0.0495 -0.0962,-0.0386 -0.0315,0.006 -0.22664,0.0857 l -0.0275,-0.01 -0.0606,-0.12654 0.0106,-0.0257 q 0.18399,-0.0744 0.57849,-0.26335 0.39264,-0.18806 0.56594,-0.28478 l 0.0266,0.008 0.0606,0.12654 -0.01,0.0275 q -0.18446,0.10208 -0.20881,0.12289 -0.0468,0.0407 -0.0303,0.0992 0.04,0.14557 0.2521,0.58845 l 0.47148,0.98439 q 0.21212,0.44288 0.30049,0.56528 0.0352,0.0495 0.0962,0.0386 0.0315,-0.006 0.22663,-0.0857 l 0.0275,0.01 z m -1.89657,-2.44086 z m 1.37791,2.87687 z"
                   style="font-style:normal;font-variant:normal;font-weight:bold;font-stretch:normal;font-family:'Palatino Linotype';-inkscape-font-specification:'Palatino Linotype Bold';letter-spacing:0.291042px;fill:#1f1f1f;fill-opacity:1;stroke-width:0.0229074"
                   id="path1114"
                   inkscape:connector-curvature="0" />
                <path
                   d="m 107.13,118.79487 q 0.16977,0.29509 0.1313,0.61715 -0.0324,0.28289 -0.21474,0.51631 -0.16674,0.21495 -0.46898,0.38883 -0.37557,0.21608 -0.83561,0.25223 l -0.0441,-0.027 q -0.0682,-0.23448 -0.28638,-0.61362 l 0.008,-0.0282 0.11446,-0.0658 0.0264,0.009 0.0237,0.0411 q 0.0576,0.10015 0.17374,0.25234 0.13023,0.0774 0.34389,0.064 0.22286,-0.014 0.41064,-0.122 0.35411,-0.20373 0.34804,-0.52873 -0.003,-0.1671 -0.0815,-0.30302 -0.1317,-0.22892 -0.37965,-0.21719 -0.12257,0.006 -0.35212,0.0955 -0.5197,0.20139 -0.73372,0.17694 -0.32385,-0.0374 -0.52654,-0.38976 -0.21093,-0.36663 -0.0897,-0.7268 0.12941,-0.37914 0.5944,-0.64666 0.41849,-0.24077 0.75319,-0.2548 l 0.0372,0.0357 q 0.0795,0.23752 0.2424,0.54133 l -0.009,0.0292 -0.11267,0.0648 -0.0282,-0.008 q -0.12883,-0.21153 -0.17839,-0.26871 -0.1038,-0.0522 -0.27546,-0.032 -0.18164,0.0236 -0.34081,0.11514 -0.23964,0.13787 -0.30609,0.34511 -0.0616,0.19493 0.0474,0.3845 0.11832,0.20567 0.32232,0.21685 0.13259,0.007 0.52499,-0.14255 0.0406,-0.0162 0.22982,-0.0846 0.11581,-0.0428 0.22478,-0.0603 0.21973,-0.036 0.39119,0.0511 0.18582,0.0954 0.3165,0.32255 z"
                   style="font-style:normal;font-variant:normal;font-weight:bold;font-stretch:normal;font-family:'Palatino Linotype';-inkscape-font-specification:'Palatino Linotype Bold';letter-spacing:0.291042px;fill:#1f1f1f;fill-opacity:1;stroke-width:0.0229074"
                   id="path1116"
                   inkscape:connector-curvature="0" />
                <path
                   d="m 109.83749,114.676 -0.006,0.0272 q -0.076,0.0604 -0.0864,0.0705 -0.0478,0.0501 -0.0538,0.0979 -0.007,0.0461 0.014,0.11741 0.0401,0.13925 0.21081,0.60189 0.0858,0.2336 0.26726,0.69351 l 0.26983,0.68652 q 0.16634,0.42502 0.22749,0.53363 l -0.25527,0.18572 -0.2526,-0.16834 q -0.62703,-0.41645 -1.1333,-0.73704 l -0.26868,-0.1694 q -0.0912,-0.0587 -0.19131,-0.12617 l 0.31592,1.34957 q 0.0466,0.20084 0.14345,0.57945 l 0.0601,0.23694 -0.24359,0.17722 -1.80439,-1.61387 q -0.13852,-0.12376 -0.18631,-0.15788 -0.10985,-0.0808 -0.18129,-0.0493 -0.0332,0.014 -0.13985,0.0813 l -0.0276,-0.003 -0.0765,-0.10511 0.005,-0.0317 q 0.3026,-0.20484 0.45442,-0.3153 0.1802,-0.1311 0.51995,-0.39359 l 0.0305,0.003 0.0777,0.10678 -0.006,0.0272 q -0.10981,0.0875 -0.12361,0.10014 -0.0585,0.0528 -0.064,0.0874 -0.007,0.0329 0.0237,0.0746 0.0279,0.0384 0.18343,0.1855 l 0.27886,0.26405 q 0.12092,0.1136 0.39796,0.36111 l 0.4274,0.38053 -0.15758,-0.65848 q -0.0459,-0.19628 -0.13875,-0.59052 l -0.15029,-0.62041 q -0.0408,-0.17186 -0.0723,-0.28169 l 0.1535,-0.11167 q 0.51977,0.35669 1.82115,1.17046 l -0.56531,-1.39777 q -0.0698,-0.16609 -0.0953,-0.20113 -0.0546,-0.0751 -0.14153,-0.0297 -0.032,0.0156 -0.18945,0.11487 l -0.0288,-0.005 -0.0765,-0.10511 0.005,-0.0317 q 0.29547,-0.19711 0.34097,-0.23277 l 0.3798,-0.29162 0.0288,0.005 z"
                   style="font-style:normal;font-variant:normal;font-weight:bold;font-stretch:normal;font-family:'Palatino Linotype';-inkscape-font-specification:'Palatino Linotype Bold';letter-spacing:0.291042px;fill:#1f1f1f;fill-opacity:1;stroke-width:0.0229074"
                   id="path1118"
                   inkscape:connector-curvature="0" />
                <path
                   d="m 113.69502,114.77522 3.1e-4,0.0278 q -0.34539,0.3011 -0.41522,0.36538 -0.27933,0.25711 -0.5108,0.487 l -0.0276,-0.003 -0.088,-0.0956 -2e-4,-0.0307 0.12509,-0.12916 q 0.0793,-0.0814 0.029,-0.13606 -0.0294,-0.0319 -0.17386,-0.10357 l -0.41781,-0.20713 q -0.21228,0.1898 -0.43088,0.39102 -0.11841,0.10899 -0.3494,0.32722 l 0.10368,0.24669 q 0.11833,0.28087 0.16724,0.33401 0.0531,0.0577 0.13423,0.003 0.0451,-0.0302 0.16602,-0.13038 l 0.0292,10e-4 0.0894,0.0971 -0.001,0.0292 q -0.28923,0.2494 -0.36969,0.32346 -0.0622,0.0573 -0.29978,0.29277 l -0.0278,3.1e-4 -0.0908,-0.0987 0.003,-0.0306 q 0.14798,-0.15303 0.13399,-0.2383 -0.0125,-0.0867 -0.314,-0.88037 l -0.51626,-1.356 q -0.0622,-0.1559 -0.1864,-0.47061 l 0.21556,-0.19842 2.54707,1.15243 q 0.14628,0.0645 0.1968,0.0432 0.0669,-0.0279 0.16099,-0.11453 l 0.029,0.004 z m -1.71423,0.0692 -1.05708,-0.49643 0.42101,1.08192 q 0.12868,-0.11003 0.32754,-0.29308 0.1928,-0.17746 0.30853,-0.29241 z m -1.48674,-1.22826 z m 2.11021,2.39304 z"
                   style="font-style:normal;font-variant:normal;font-weight:bold;font-stretch:normal;font-family:'Palatino Linotype';-inkscape-font-specification:'Palatino Linotype Bold';letter-spacing:0.291042px;fill:#1f1f1f;fill-opacity:1;stroke-width:0.0229074"
                   id="path1120"
                   inkscape:connector-curvature="0" />
                <path
                   d="m 116.66025,111.30904 0.005,0.0273 q -0.13727,0.15454 -0.40382,0.49352 -0.26527,0.33735 -0.38308,0.5072 l -0.0277,0.002 -0.10866,-0.0854 -0.003,-0.029 q 0.12036,-0.17309 0.133,-0.20252 0.024,-0.0572 -0.0167,-0.10233 -0.1002,-0.11291 -0.48621,-0.41645 l -0.85799,-0.67466 q -0.38601,-0.30354 -0.51937,-0.37428 -0.0534,-0.0289 -0.10337,0.008 -0.0256,0.0192 -0.16544,0.17701 l -0.029,0.003 -0.11029,-0.0867 -0.002,-0.0277 q 0.13216,-0.14805 0.40254,-0.49189 0.2691,-0.34223 0.3818,-0.50558 l 0.0273,-0.005 0.11029,0.0867 0.003,0.029 q -0.12036,0.17308 -0.133,0.20251 -0.024,0.0572 0.0166,0.10234 0.1002,0.11291 0.48621,0.41644 l 0.85799,0.67467 q 0.38601,0.30353 0.51937,0.37427 0.0534,0.0289 0.10337,-0.008 0.0256,-0.0192 0.16544,-0.17701 l 0.029,-0.003 z m -2.78004,-1.35136 z m 2.50747,1.97171 z"
                   style="font-style:normal;font-variant:normal;font-weight:bold;font-stretch:normal;font-family:'Palatino Linotype';-inkscape-font-specification:'Palatino Linotype Bold';letter-spacing:0.291042px;fill:#1f1f1f;fill-opacity:1;stroke-width:0.0229074"
                   id="path1122"
                   inkscape:connector-curvature="0" />
                <path
                   d="m 116.53354,106.63041 0.005,0.0303 q -0.10538,0.18259 -0.11551,0.21298 -0.0191,0.0591 0.0252,0.10057 0.10933,0.10409 0.5195,0.37411 l 0.69968,0.46061 q 0.77379,0.5094 1.02292,0.6413 l 7.6e-4,0.0326 q -0.16095,0.17318 -0.24054,0.26406 -0.82278,0.12037 -2.93034,0.33117 l 1.12708,0.74198 q 0.41016,0.27002 0.549,0.3293 0.0556,0.0243 0.10233,-0.0166 0.0239,-0.0213 0.14998,-0.19029 l 0.0286,-0.006 0.11719,0.0771 0.004,0.0275 q -0.14081,0.19138 -0.25313,0.36199 -0.13047,0.19819 -0.25173,0.4049 l -0.0269,0.007 -0.11719,-0.0771 -0.006,-0.0286 q 0.10539,-0.18259 0.11551,-0.21298 0.0191,-0.059 -0.0252,-0.10057 -0.10933,-0.10409 -0.51949,-0.3741 l -0.91166,-0.60017 q -0.41016,-0.27001 -0.549,-0.32929 -0.0556,-0.0243 -0.10233,0.0166 -0.0239,0.0213 -0.14998,0.19029 l -0.0286,0.006 -0.11719,-0.0772 -0.004,-0.0274 q 0.11812,-0.15691 0.21569,-0.30512 0.15316,-0.23266 0.24379,-0.39284 1.23564,-0.0758 2.73315,-0.29055 l -1.00817,-0.66369 q -0.41016,-0.27002 -0.54899,-0.3293 -0.0556,-0.0243 -0.10234,0.0166 -0.0239,0.0213 -0.14997,0.19029 l -0.0286,0.006 -0.11719,-0.0771 -0.004,-0.0275 q 0.1374,-0.18621 0.25199,-0.36027 0.14635,-0.22231 0.25287,-0.40662 l 0.0268,-0.007 z"
                   style="font-style:normal;font-variant:normal;font-weight:bold;font-stretch:normal;font-family:'Palatino Linotype';-inkscape-font-specification:'Palatino Linotype Bold';letter-spacing:0.291042px;fill:#1f1f1f;fill-opacity:1;stroke-width:0.0229074"
                   id="path1124"
                   inkscape:connector-curvature="0" />
                <path
                   d="m 117.45257,104.5134 0.1985,0.129 q 0.0665,0.0424 0.17635,0.10871 l 0.14218,0.0848 0.0111,0.0286 -0.0534,0.10709 -0.0277,0.009 q -0.2511,-0.12064 -0.29907,-0.11229 -0.0784,0.0139 -0.31419,0.48658 -0.0378,0.0757 -0.10772,0.2437 0.17819,0.11425 0.66562,0.35739 l 0.24926,0.12433 0.1096,-0.20588 q 0.0488,-0.0932 0.16668,-0.35264 0.023,-0.0508 0.005,-0.0803 -0.0305,-0.0498 -0.22714,-0.1548 l -0.009,-0.0277 0.0571,-0.11448 0.0277,-0.009 q 0.20311,0.11053 0.37482,0.19619 0.18648,0.093 0.41172,0.19614 l 0.007,0.0268 -0.0617,0.1237 -0.0277,0.009 q -0.19387,-0.0967 -0.23539,-0.0967 -0.0803,-8.4e-4 -0.1724,0.15149 -0.0636,0.10433 -0.11607,0.20957 -0.0636,0.1274 -0.10774,0.22986 l 0.43943,0.21919 q 0.43758,0.21827 0.58433,0.2615 0.0582,0.0175 0.0996,-0.0287 0.0101,-0.0111 0.15016,-0.25481 l 0.0277,-0.009 0.12371,0.0617 0.008,0.0295 -0.38131,0.7367 q -0.0811,0.15786 -0.20811,0.44495 l -0.0258,0.0102 -0.12555,-0.0626 -0.009,-0.0277 q 0.0829,-0.19386 0.0893,-0.22524 0.0119,-0.0609 -0.037,-0.0969 -0.12281,-0.0912 -0.56039,-0.3095 l -0.97671,-0.48719 q -0.43758,-0.21827 -0.58433,-0.2615 -0.0581,-0.0175 -0.0996,0.0287 -0.0212,0.024 -0.12622,0.20681 l -0.0277,0.009 -0.12555,-0.0626 -0.007,-0.0268 q 0.0995,-0.17172 0.29474,-0.56314 0.12617,-0.25295 0.60965,-1.24995 z"
                   style="font-style:normal;font-variant:normal;font-weight:bold;font-stretch:normal;font-family:'Palatino Linotype';-inkscape-font-specification:'Palatino Linotype Bold';letter-spacing:0.291042px;fill:#1f1f1f;fill-opacity:1;stroke-width:0.0229074"
                   id="path1126"
                   inkscape:connector-curvature="0" />
                <path
                   d="m 119.91625,101.73022 q 0.71371,0.26508 0.96543,0.83179 0.24443,0.55079 -0.0156,1.25097 -0.24569,0.66149 -0.75714,0.90072 -0.51338,0.23852 -1.1768,-0.008 -0.93034,-0.34554 -1.02451,-1.18829 -0.0425,-0.38335 0.13278,-0.85529 0.25072,-0.67503 0.74404,-0.91879 0.50128,-0.24742 1.13182,-0.0132 z m -0.12069,0.63308 q -0.56091,-0.20833 -0.97377,-0.10416 -0.41408,0.10152 -0.57571,0.53671 -0.21336,0.57445 0.23338,0.95388 0.22906,0.19512 0.55787,0.31725 0.59766,0.22198 1.02578,0.13008 0.44259,-0.0953 0.61141,-0.54987 0.20474,-0.55124 -0.26836,-0.94265 -0.25084,-0.20762 -0.6106,-0.34124 z m 1.15135,1.43348 z m -2.99024,-1.11062 z"
                   style="font-style:normal;font-variant:normal;font-weight:bold;font-stretch:normal;font-family:'Palatino Linotype';-inkscape-font-specification:'Palatino Linotype Bold';letter-spacing:0.291042px;fill:#1f1f1f;fill-opacity:1;stroke-width:0.0229074"
                   id="path1128"
                   inkscape:connector-curvature="0" />
                <path
                   d="m 122.52533,98.91083 0.0125,0.02636 q -0.005,0.0136 -0.0283,0.07316 -0.10461,0.262801 -0.12816,0.328881 -0.0353,0.09912 -0.10055,0.319009 -0.0494,-0.0088 -0.18181,0.01844 l -0.9764,0.19523 -0.40535,0.09867 q -0.0748,0.01934 -0.15942,0.07242 l -0.0585,-0.04493 q 0.0179,-0.04401 0.0255,-0.06539 0.0679,-0.190467 0.0464,-0.320777 -0.0191,-0.118516 -0.12535,-0.250574 -0.10626,-0.132059 -0.29479,-0.199248 -0.32845,-0.117062 -0.5304,0.08696 -0.096,0.09722 -0.17564,0.320724 -0.0346,0.09718 -0.0509,0.19212 0.18354,0.08732 0.64221,0.250785 l 1.01647,0.36227 q 0.46256,0.16486 0.6115,0.18946 0.0598,0.0104 0.0955,-0.0405 0.0182,-0.0264 0.10048,-0.22047 l 0.0264,-0.0125 0.13022,0.0464 0.0132,0.0244 q -0.0809,0.1902 -0.22501,0.59445 -0.14892,0.41786 -0.20168,0.60277 l -0.0244,0.0132 -0.13216,-0.0471 -0.0125,-0.0264 q 0.059,-0.2024 0.0616,-0.23432 0.005,-0.0619 -0.0484,-0.0917 -0.13093,-0.0751 -0.59349,-0.24 l -1.02813,-0.36642 q -0.46256,-0.16485 -0.6115,-0.18946 -0.0598,-0.0104 -0.0955,0.0404 -0.0182,0.0264 -0.10048,0.22047 l -0.0264,0.0125 -0.13216,-0.0471 -0.0106,-0.0257 q 0.0795,-0.18631 0.225,-0.594448 0.0845,-0.237111 0.13132,-0.386898 0.0929,-0.297629 0.14488,-0.443394 0.11983,-0.336232 0.23619,-0.472185 0.15713,-0.182753 0.37711,-0.185397 0.1077,-10e-4 0.23792,0.04537 0.52864,0.188407 0.53824,0.862093 0.1979,-0.03899 0.40383,-0.08826 l 0.56729,-0.135141 q 0.50234,-0.11886 0.58988,-0.186231 0.0451,-0.03431 0.0735,-0.113997 l 0.0264,-0.01251 z"
                   style="font-style:normal;font-variant:normal;font-weight:bold;font-stretch:normal;font-family:'Palatino Linotype';-inkscape-font-specification:'Palatino Linotype Bold';letter-spacing:0.291042px;fill:#1f1f1f;fill-opacity:1;stroke-width:0.0229074"
                   id="path1130"
                   inkscape:connector-curvature="0" />
                <path
                   d="m 123.59737,94.717246 0.0155,0.02473 q -0.0578,0.1963 -0.15444,0.616564 -0.0989,0.430319 -0.1303,0.622111 l -0.0223,0.01394 -0.13673,-0.03143 -0.0155,-0.02473 q 0.0351,-0.207879 0.034,-0.23989 -0.003,-0.06201 -0.0587,-0.08547 -0.13877,-0.05942 -0.61735,-0.169434 l -1.35933,-0.312469 0.81588,0.659657 q 0.0676,0.05577 0.50294,0.390834 l 0.71975,0.552876 -0.031,0.134726 q -0.27338,0.04725 -0.69457,0.138848 l -0.66193,0.144234 -1.21701,0.274922 1.39552,0.32079 q 0.47858,0.110011 0.62937,0.117151 0.0606,0.0034 0.0901,-0.05127 0.015,-0.02831 0.0742,-0.230645 l 0.0247,-0.01549 0.13674,0.03143 0.0135,0.02427 q -0.0652,0.228473 -0.11098,0.427545 -0.0532,0.231247 -0.0947,0.467277 l -0.0227,0.01595 -0.13674,-0.03143 -0.0155,-0.02473 q 0.0351,-0.207878 0.034,-0.23989 -0.003,-0.06201 -0.0587,-0.08547 -0.13877,-0.05942 -0.61735,-0.169433 L 120.864,97.738799 q -0.47857,-0.110012 -0.62936,-0.117152 -0.0606,-0.0034 -0.0901,0.05127 -0.015,0.02831 -0.0742,0.230646 l -0.0247,0.01549 -0.13674,-0.03143 -0.0135,-0.02427 q 0.0601,-0.206353 0.13363,-0.526076 0.0564,-0.245322 0.0864,-0.431081 0.16808,-0.03123 0.47377,-0.0901 l 0.30708,-0.0649 1.48419,-0.332061 -0.55263,-0.45095 -0.91707,-0.71679 q -0.16357,-0.126519 -0.35622,-0.255487 0.0643,-0.224451 0.0823,-0.302873 0.0906,-0.394124 0.1266,-0.606024 l 0.0227,-0.01595 0.13875,0.03189 0.0135,0.02427 q -0.0351,0.207879 -0.034,0.23989 0.003,0.06201 0.0587,0.08547 0.13877,0.05942 0.61735,0.169433 l 1.06373,0.244522 q 0.47858,0.110011 0.62937,0.117151 0.0606,0.0034 0.0901,-0.05127 0.015,-0.02831 0.0742,-0.230646 l 0.0247,-0.01549 z"
                   style="font-style:normal;font-variant:normal;font-weight:bold;font-stretch:normal;font-family:'Palatino Linotype';-inkscape-font-specification:'Palatino Linotype Bold';letter-spacing:0.291042px;fill:#1f1f1f;fill-opacity:1;stroke-width:0.0229074"
                   id="path1132"
                   inkscape:connector-curvature="0" />
                <path
                   d="m 123.88237,91.097615 0.019,0.02022 q -0.0504,0.45544 -0.0582,0.550024 -0.0315,0.378333 -0.0462,0.704234 l -0.0221,0.01679 -0.12954,-0.01079 -0.0209,-0.02245 0.005,-0.179742 q 0.003,-0.113602 -0.0708,-0.119767 -0.0432,-0.0036 -0.19807,0.04148 l -0.44772,0.130417 q -0.0277,0.283408 -0.0524,0.579495 -0.0134,0.16038 -0.0356,0.477371 l 0.24332,0.111363 q 0.27724,0.126611 0.34921,0.132604 0.0781,0.0065 0.10057,-0.08893 0.0127,-0.05277 0.0339,-0.208359 l 0.0223,-0.01885 0.1316,0.01096 0.0189,0.02227 q -0.044,0.379362 -0.0531,0.488338 -0.007,0.0843 -0.0224,0.418428 l -0.0202,0.01902 -0.13365,-0.01113 -0.0187,-0.02433 q 0.005,-0.212812 -0.0627,-0.266097 -0.0679,-0.05534 -0.82711,-0.435349 l -1.29798,-0.64848 q -0.1513,-0.07264 -0.45579,-0.220157 l 0.0243,-0.291975 2.65479,-0.876224 q 0.15129,-0.05158 0.17408,-0.101445 0.0303,-0.0658 0.0409,-0.19328 l 0.0242,-0.01662 z m -1.21478,1.211476 -1.11407,0.350286 1.04232,0.511245 q 0.0202,-0.168092 0.0426,-0.437449 0.0217,-0.261132 0.0291,-0.424082 z m -1.92575,0.102561 z m 3.17317,0.332595 z"
                   style="font-style:normal;font-variant:normal;font-weight:bold;font-stretch:normal;font-family:'Palatino Linotype';-inkscape-font-specification:'Palatino Linotype Bold';letter-spacing:0.291042px;fill:#1f1f1f;fill-opacity:1;stroke-width:0.0229074"
                   id="path1134"
                   inkscape:connector-curvature="0" />
                <path
                   d="m 120.99478,88.25535 q 0.1524,0.02642 0.31537,0.03025 l 0.3445,0.0079 0.0204,0.02086 -0.001,0.129979 -0.0188,0.02249 q -0.2642,0.0074 -0.30972,0.01933 -0.0828,0.02386 -0.0984,0.130988 -0.007,0.0412 -0.0104,0.387806 l -0.003,0.276463 q 0.0722,0.0049 0.57351,0.01037 l 1.17187,0.01275 q 0.49103,0.0053 0.63987,-0.01986 0.06,-0.0097 0.0771,-0.06932 0.009,-0.03086 0.0233,-0.241164 l 0.0209,-0.02041 0.13823,0.0015 0.0204,0.02086 q -0.0146,0.204118 -0.0193,0.635317 -0.005,0.441516 0.005,0.635587 l -0.0188,0.01837 -0.14029,-0.0015 -0.0204,-0.02086 q -0.0101,-0.210577 -0.018,-0.241614 -0.0159,-0.06001 -0.0756,-0.07098 -0.14826,-0.02844 -0.63929,-0.03378 l -1.17187,-0.01275 q -0.5096,-0.0055 -0.57362,-4.9e-5 l -0.003,0.295032 q -0.004,0.369305 0.018,0.431446 0.012,0.03315 0.0305,0.04573 0.0328,0.01893 0.13171,0.03238 0.10919,0.01563 0.22468,0.02101 l 0.0204,0.02086 -10e-4,0.129979 -0.0209,0.02247 -0.35285,2.89e-4 q -0.14857,4.48e-4 -0.30768,0.02142 l -0.0204,-0.01879 q 0.022,-0.121502 0.0303,-0.886933 l 0.009,-0.835578 q 0.008,-0.7056 -0.011,-0.887382 z"
                   style="font-style:normal;font-variant:normal;font-weight:bold;font-stretch:normal;font-family:'Palatino Linotype';-inkscape-font-specification:'Palatino Linotype Bold';letter-spacing:0.291042px;fill:#1f1f1f;fill-opacity:1;stroke-width:0.0229074"
                   id="path1136"
                   inkscape:connector-curvature="0" />
                <path
                   d="m 123.80766,86.430853 0.0217,0.01727 q 2.8e-4,0.206699 0.0267,0.637115 0.0263,0.428357 0.0513,0.63354 l -0.0195,0.0198 -0.13798,0.0085 -0.0219,-0.01933 q -0.0252,-0.209302 -0.0354,-0.239688 -0.0201,-0.05871 -0.0805,-0.06535 -0.14992,-0.01768 -0.64006,0.01239 l -1.08943,0.06682 q -0.49014,0.03006 -0.63677,0.06593 -0.0591,0.01396 -0.0719,0.07469 -0.006,0.0314 -0.006,0.242214 l -0.0193,0.02186 -0.14004,0.0086 -0.0198,-0.01946 q 2.3e-4,-0.198461 -0.0266,-0.635056 -0.0266,-0.434535 -0.0511,-0.63148 l 0.0173,-0.02173 0.14004,-0.0086 0.0219,0.01933 q 0.0252,0.209301 0.0354,0.239687 0.0201,0.05871 0.0805,0.06535 0.14992,0.01768 0.64006,-0.01239 l 1.08943,-0.06682 q 0.49014,-0.03006 0.63677,-0.06593 0.0591,-0.01396 0.0719,-0.07469 0.006,-0.0314 0.006,-0.242214 l 0.0193,-0.02186 z m -2.9748,0.83982 z m 3.18384,-0.195286 z"
                   style="font-style:normal;font-variant:normal;font-weight:bold;font-stretch:normal;font-family:'Palatino Linotype';-inkscape-font-specification:'Palatino Linotype Bold';letter-spacing:0.291042px;fill:#1f1f1f;fill-opacity:1;stroke-width:0.0229074"
                   id="path1138"
                   inkscape:connector-curvature="0" />
                <path
                   d="m 123.06391,82.858474 0.0248,0.01542 q 0.0647,0.332373 0.0941,0.458975 0.0262,0.112534 0.0949,0.352883 -0.0897,0.06961 -0.23517,0.272942 l -0.5423,0.755418 q -0.17567,0.246384 -0.30816,0.51449 l 0.47827,-0.111334 q 0.47828,-0.111335 0.61688,-0.17114 0.0559,-0.02361 0.0585,-0.08563 10e-4,-0.03201 -0.0346,-0.239796 l 0.0154,-0.02477 0.13464,-0.03134 0.0243,0.01341 q 0.0347,0.203761 0.13202,0.621748 0.10058,0.432053 0.15614,0.616134 l -0.0134,0.02431 -0.13665,0.03181 -0.0248,-0.01542 q -0.0598,-0.202167 -0.0748,-0.230439 -0.0296,-0.05454 -0.0903,-0.05102 -0.15077,0.0076 -0.62904,0.118892 l -1.06305,0.247463 q -0.47827,0.111334 -0.61688,0.17114 -0.0559,0.02361 -0.0585,0.08563 -0.001,0.03201 0.0346,0.239795 l -0.0154,0.02477 -0.13665,0.03181 -0.0228,-0.01588 q -0.0329,-0.195724 -0.13203,-0.621748 -0.10151,-0.436072 -0.15613,-0.616134 l 0.0139,-0.0223 0.13866,-0.03228 0.0228,0.01588 q 0.0598,0.202168 0.0748,0.23044 0.0296,0.05453 0.0903,0.05102 0.15077,-0.0076 0.62904,-0.118892 l 0.49837,-0.116013 q -0.43714,-0.294389 -0.64383,-0.417868 l -0.36183,-0.21659 q -0.18688,-0.111145 -0.50547,-0.278485 l -0.13866,0.03228 -0.0252,-0.01743 q -0.024,-0.157542 -0.0586,-0.306249 -0.0407,-0.174831 -0.10748,-0.407141 l 0.0154,-0.02477 0.1246,-0.029 0.0248,0.01542 q 0.0543,0.233107 0.15481,0.328334 0.14641,0.137512 0.68218,0.491563 l 0.48032,0.316112 q 0.0964,-0.113542 0.27814,-0.361329 l 0.4177,-0.571765 q 0.46428,-0.63557 0.48221,-0.722363 0.0109,-0.05338 -0.0128,-0.164368 l 0.0174,-0.02524 z"
                   style="font-style:normal;font-variant:normal;font-weight:bold;font-stretch:normal;font-family:'Palatino Linotype';-inkscape-font-specification:'Palatino Linotype Bold';letter-spacing:0.291042px;fill:#1f1f1f;fill-opacity:1;stroke-width:0.0229074"
                   id="path1140"
                   inkscape:connector-curvature="0" />
                <path
                   d="m 121.87219,79.526597 0.0256,0.01063 q 0.14103,0.435973 0.17267,0.525454 0.12656,0.357926 0.24691,0.661149 l -0.0133,0.02439 -0.12255,0.04333 -0.0283,-0.01189 -0.0696,-0.165798 q -0.0437,-0.104925 -0.11369,-0.08016 -0.0409,0.01444 -0.1636,0.119123 l -0.35473,0.302699 q 0.091,0.26982 0.19008,0.549936 0.0536,0.15173 0.16347,0.449923 l 0.26758,0.0017 q 0.30478,0.0017 0.37287,-0.02242 0.0739,-0.02614 0.0552,-0.122379 -0.0101,-0.05333 -0.0546,-0.203918 l 0.0126,-0.02633 0.1245,-0.04402 0.0263,0.01257 q 0.11558,0.363998 0.15203,0.467096 0.0282,0.07976 0.15131,0.390759 l -0.0106,0.02564 -0.12644,0.04471 -0.027,-0.01452 q -0.0825,-0.196234 -0.16643,-0.2169 -0.0846,-0.02261 -0.93291,-0.05748 l -1.44978,-0.05855 q -0.16778,-0.0041 -0.50599,-0.01367 l -0.0977,-0.276226 2.06118,-1.888713 q 0.11679,-0.109139 0.1171,-0.16396 6.4e-4,-0.07245 -0.042,-0.193053 l 0.0152,-0.02507 z m -0.61046,1.603344 -0.87211,0.776709 1.16031,0.03835 q -0.0506,-0.161574 -0.14067,-0.416402 -0.0874,-0.247047 -0.14753,-0.398658 z m -1.71395,0.883981 z m 3.03006,-0.999198 z"
                   style="font-style:normal;font-variant:normal;font-weight:bold;font-stretch:normal;font-family:'Palatino Linotype';-inkscape-font-specification:'Palatino Linotype Bold';letter-spacing:0.291042px;fill:#1f1f1f;fill-opacity:1;stroke-width:0.0229074"
                   id="path1142"
                   inkscape:connector-curvature="0" />
              </g>
              <path
                 style="color:#000000;font-style:normal;font-variant:normal;font-weight:normal;font-stretch:normal;font-size:medium;line-height:normal;font-family:sans-serif;font-variant-ligatures:normal;font-variant-position:normal;font-variant-caps:normal;font-variant-numeric:normal;font-variant-alternates:normal;font-feature-settings:normal;text-indent:0;text-align:start;text-decoration:none;text-decoration-line:none;text-decoration-style:solid;text-decoration-color:#000000;letter-spacing:normal;word-spacing:normal;text-transform:none;writing-mode:lr-tb;direction:ltr;text-orientation:mixed;dominant-baseline:auto;baseline-shift:baseline;text-anchor:start;white-space:normal;shape-padding:0;clip-rule:nonzero;display:inline;overflow:visible;visibility:visible;opacity:1;isolation:auto;mix-blend-mode:normal;color-interpolation:sRGB;color-interpolation-filters:linearRGB;solid-color:#000000;solid-opacity:1;vector-effect:none;fill:#808080;fill-opacity:1;fill-rule:nonzero;stroke:none;stroke-width:0.0913066;stroke-linecap:butt;stroke-linejoin:round;stroke-miterlimit:4;stroke-dasharray:none;stroke-dashoffset:0;stroke-opacity:1;paint-order:stroke fill markers;color-rendering:auto;image-rendering:auto;shape-rendering:auto;text-rendering:auto;enable-background:accumulate"
                 d="m 87.632812,58.318359 c -16.897459,0.959814 -30.308593,14.974827 -30.308593,32.109375 0,5.516564 1.388971,10.711486 3.83789,15.249996 l 0.949219,-0.51171 c -2.366716,-4.38617 -3.710937,-9.402565 -3.710937,-14.738286 0,-16.572847 12.957577,-30.107158 29.294921,-31.035156 z"
                 id="path1080"
                 inkscape:connector-curvature="0" />
            </g>
          </g>
        </g>
      </g>
    </g>
  </g>
</svg>
