<svg width="1920" height="198" viewBox="0 0 1920 198" fill="none" xmlns="http://www.w3.org/2000/svg">
<path d="M0 97.7333C0 97.7333 41 97.7333 78.5 89.5C116 81.2667 160 54.6667 240 69.3333C320 84 400 140 480 140.4C560 140 640 84 720 97.7333C800 112 880 197.333 960 197.333C1040 197.333 1120 112 1200 83.6C1280 54.6667 1360 84 1440 83.6C1520 84 1600 54.6667 1680 48C1760 41.3333 1808 81.9 1848 89.5C1888 97.1 1920 97.7259 1920 97.7259V0H1880C1840 0 1760 0 1680 0C1600 0 1520 0 1440 0C1360 0 1280 0 1200 0C1120 0 1040 0 960 0C880 0 800 0 720 0C640 0 560 0 480 0C400 0 320 0 240 0C160 0 80 0 40 0H0V97.7333Z" fill="#B7BAEA"/>
</svg>
